<svg xmlns="http://www.w3.org/2000/svg" version="1.1" xmlns:xlink="http://www.w3.org/1999/xlink" width="512"
    height="512" x="0" y="0" viewBox="0 0 32 32" style="enable-background:new 0 0 512 512" xml:space="preserve"
    fill-rule="evenodd" class="">
    <g>
        <path
            d="M16.028 1c-8.279 0-15 6.721-15 15s6.721 15 15 15 15-6.721 15-15-6.721-15-15-15zm0 2c7.175 0 13 5.825 13 13s-5.825 13-13 13-13-5.825-13-13 5.825-13 13-13z"
            fill="#000000" opacity="1" data-original="#000000" class=""></path>
        <path
            d="M15.965 10.5c-3.035 0-5.5 2.464-5.5 5.5s2.465 5.5 5.5 5.5c3.036 0 5.5-2.464 5.5-5.5s-2.464-5.5-5.5-5.5zm.028 2h-.028c-1.931 0-3.5 1.568-3.5 3.5s1.569 3.5 3.5 3.5h.028zM15.028 5.25v3.5a1 1 0 0 0 2 0v-3.5a1 1 0 0 0-2 0zM22.914 7.711l-2.475 2.475a1 1 0 0 0 1.414 1.414l2.475-2.475a1 1 0 0 0-1.414-1.414zM26.75 15.028h-3.5a1 1 0 0 0 0 2h3.5a1 1 0 0 0 0-2zM24.289 22.914l-2.475-2.475a1 1 0 0 0-1.414 1.414l2.475 2.475a1 1 0 0 0 1.414-1.414zM16.972 26.75v-3.5a1 1 0 0 0-2 0v3.5a1 1 0 0 0 2 0zM9.086 24.289l2.475-2.475a1 1 0 0 0-1.414-1.414l-2.475 2.475a1 1 0 0 0 1.414 1.414zM5.25 16.972h3.5a1 1 0 0 0 0-2h-3.5a1 1 0 0 0 0 2zM7.711 9.086l2.475 2.475a1 1 0 0 0 1.414-1.414L9.125 7.672a1 1 0 0 0-1.414 1.414z"
            fill="#000000" opacity="1" data-original="#000000" class=""></path>
    </g>
</svg>