<svg xmlns="http://www.w3.org/2000/svg" version="1.1" xmlns:xlink="http://www.w3.org/1999/xlink" width="512"
    height="512" x="0" y="0" style="enable-background:new 0 0 512 512" xml:space="preserve"
    class="">
    <g>
        <path
            d="M333.205 34.213 330.799 0 9.545 22.591l30.318 431.118 29-2.04V79.817H420.93V478.34l35.255 3.795 46.27-429.697z"
            fill="#fff" opacity="1" data-original="#000000" class=""></path>
        <path
            d="M98.884 109.838V512H390.91V109.838H98.884zm96.206 68.448c18.508 0 33.097 6.755 42.418 18.912l-20.128 17.966c-5.539-7.025-12.157-11.078-20.668-11.078-13.239 0-22.154 9.186-22.154 23.64s8.916 23.64 22.154 23.64c8.511 0 15.13-4.053 20.668-11.078l20.128 17.966c-9.321 12.157-23.911 18.912-42.418 18.912-30.395 0-52.684-20.398-52.684-49.442 0-29.04 22.29-49.438 52.684-49.438zm147.705 270.285H146.998V418.55h195.797v30.021zm0-53.399H146.998v-30.021h195.797v30.021zm0-53.399H146.998v-30.021h195.797v30.021zm-35.039-66.764h-31.341l-39.986-94.562h34.313l22.56 55.251 23.101-55.251h31.339l-39.986 94.562z"
            fill="#fff" opacity="1" data-original="#000000" class=""></path>
    </g>
</svg>