<svg xmlns="http://www.w3.org/2000/svg" version="1.1" xmlns:xlink="http://www.w3.org/1999/xlink" width="512"
    height="512" x="0" y="0" viewBox="0 0 32 32" style="enable-background:new 0 0 512 512" xml:space="preserve"
    fill-rule="evenodd" class="">
    <g>
        <path
            d="M16.028 1c-8.279 0-15 6.721-15 15s6.721 15 15 15 15-6.721 15-15-6.721-15-15-15zm.944 25.75v-3.5a1 1 0 0 0-2 0v3.5a1 1 0 0 0 2 0zm7.317-3.836-2.475-2.475a1 1 0 0 0-1.414 1.414l2.475 2.475a1 1 0 0 0 1.414-1.414zM9.086 24.289l2.475-2.475a1 1 0 0 0-1.414-1.414l-2.475 2.475a1 1 0 0 0 1.414 1.414zM15.965 10.5c-3.035 0-5.5 2.464-5.5 5.5s2.465 5.5 5.5 5.5c3.036 0 5.5-2.464 5.5-5.5s-2.464-5.5-5.5-5.5zm.028 2h-.028c-1.931 0-3.5 1.568-3.5 3.5s1.569 3.5 3.5 3.5h.028zm10.757 2.528h-3.5a1 1 0 0 0 0 2h3.5a1 1 0 0 0 0-2zm-21.5 1.944h3.5a1 1 0 0 0 0-2h-3.5a1 1 0 0 0 0 2zm17.664-9.261-2.475 2.475a1 1 0 0 0 1.414 1.414l2.475-2.475a1 1 0 0 0-1.414-1.414zM7.711 9.086l2.475 2.475a1 1 0 0 0 1.414-1.414L9.125 7.672a1 1 0 0 0-1.414 1.414zm7.317-3.836v3.5a1 1 0 0 0 2 0v-3.5a1 1 0 0 0-2 0z"
            fill="#000000" opacity="1" data-original="#000000" class=""></path>
    </g>
</svg>